<?xml version="1.0" encoding="UTF-8" standalone="no"?>
<!-- Created with Inkscape (http://www.inkscape.org/) -->

<svg
   width="50.912399mm"
   height="63.057823mm"
   viewBox="0 0 50.912399 63.057823"
   version="1.1"
   id="svg1"
   xmlns="http://www.w3.org/2000/svg"
   xmlns:svg="http://www.w3.org/2000/svg">
  <defs
     id="defs1" />
  <g
     id="layer1"
     transform="translate(-123.03125,-73.289583)">
    <g
       id="g10"
       transform="translate(-59.182923,41.968926)"
       style="fill:#ffffff;stroke:#ffffff;stroke-width:2.8;stroke-dasharray:none">
      <path
         id="rect6"
         style="fill:#ffffff;fill-rule:evenodd;stroke:#ffffff;stroke-width:2.8;stroke-dasharray:none;stop-color:#000000"
         d="m 183.61787,32.720656 v 8.00933 h 24.26622 v -0.0031 c 0.006,8.2e-5 0.0124,5.07e-4 0.0186,5.16e-4 0.001,2e-6 0.002,-2e-6 0.003,0 7.59105,0.01273 13.65601,6.084999 13.65601,13.679269 0,7.602249 -6.07755,13.679787 -13.67978,13.679785 -1.35719,-10e-7 -2.6605,-0.205425 -3.89434,-0.567407 l -5.35265,-5.295801 7.19491,-7.253304 -22.21001,0.08992 0.0899,22.210014 7.58661,-7.648112 23.60838,23.356714 H 229.721 L 212.19907,75.642584 c 9.87392,-2.016105 17.36278,-10.78832 17.36277,-21.235913 0,-11.925053 -9.75295,-21.678684 -21.67775,-21.679814 v -0.0062 z" />
    </g>
  </g>
</svg>
